<svg class="svg-icon" style="width: 1em; height: 1em;vertical-align: middle;fill: currentColor;overflow: hidden;" viewBox="0 0 1024 1024" version="1.1" xmlns="http://www.w3.org/2000/svg"><path d="M199.618 398.445c-22.428 0-40.673-18.243-40.673-40.672s18.245-40.672 40.673-40.672 40.671 18.244 40.671 40.672c0 22.428-18.244 40.672-40.671 40.672z m0-63.268c-12.464 0-22.596 10.132-22.596 22.595s10.133 22.596 22.596 22.596 22.594-10.133 22.594-22.596c-0.001-12.462-10.131-22.595-22.594-22.595z" fill="#FFD8A0" /><path d="M787.102 317.101c-22.432 0-40.672-18.243-40.672-40.672 0-22.428 18.24-40.672 40.672-40.672 22.428 0 40.67 18.244 40.67 40.672-0.001 22.429-18.243 40.672-40.67 40.672z m0-63.267c-12.463 0-22.594 10.132-22.594 22.595s10.131 22.596 22.594 22.596 22.596-10.132 22.596-22.596c-0.001-12.461-10.134-22.595-22.596-22.595z" fill="#FFF7EC" /><path d="M109.233 732.859c-22.428 0-40.672-18.245-40.672-40.672 0-22.429 18.244-40.672 40.672-40.672 22.429 0 40.672 18.244 40.672 40.672 0.002 22.428-18.242 40.672-40.672 40.672z m0-63.267c-12.463 0-22.595 10.133-22.595 22.596s10.131 22.595 22.595 22.595 22.597-10.132 22.597-22.595-10.133-22.596-22.597-22.596z" fill="#FFF4E4" /><path d="M985.943 543.058c-17.439 0-31.635-14.192-31.635-31.635 0-17.441 14.195-31.635 31.635-31.635s31.633 14.193 31.633 31.635-14.195 31.635-31.633 31.635z m0-45.191c-7.475 0-13.557 6.081-13.557 13.557s6.082 13.557 13.557 13.557c7.477 0 13.559-6.081 13.559-13.557s-6.082-13.557-13.559-13.557zM326.152 308.063c-17.442 0-31.634-14.193-31.634-31.634 0-17.44 14.192-31.634 31.634-31.634 17.44 0 31.633 14.193 31.633 31.634 0.001 17.443-14.192 31.634-31.633 31.634z m0-45.189c-7.476 0-13.56 6.082-13.56 13.558 0 7.475 6.083 13.558 13.56 13.558 7.475 0 13.556-6.083 13.556-13.558 0-7.476-6.08-13.558-13.556-13.558z" fill="#FFC879" /><path d="M926.797 446.302l4.279-30.476-38.799 7.148 2.621-41.59-39.753 7.326 3.335-53.136 18.041 1.131-1.888 30.027 39.754-7.326-2.621 41.59 40.707-7.502-4.618 32.825 31.159-2.728 1.57 18.006z" fill="#FFD495" /><path d="M265.346 844.15l-1.605-30.732-36.736 14.422-5.366-41.324-37.627 14.767-6.843-52.781 17.918-2.332 3.877 29.832 37.626-14.766 5.368 41.308 38.518-15.129 1.73 33.102 30.061-8.618 4.98 17.371zM867.234 780.824l-0.437-18.076 30.078-0.735-10.76-38.959 41.653-1.016-11.006-39.886 33.08 1.73-5.418-30.794 17.793-3.144 9.373 53.18-30.736-1.606 10.5 38.033-41.655 1.013 10.76 38.96z" fill="#FFF3E3" /><path d="M81.36 586.713l-48.113-24.521 19.781-23.575-36.692-14.501 24.256-33.876L3 475.377l30.99-43.286 14.703 10.521-17.518 24.468 37.591 14.863-24.256 33.876 38.493 15.208-21.299 25.375 27.865 14.211z" fill="#FFBD5E" /><path d="M641.619 410.242c0.68-0.023 1.363-0.01 2.039 0.067a13.979 13.979 0 0 1 9.16 5.408 13.865 13.865 0 0 1 2.678 10.27 13.813 13.813 0 0 1-5.381 9.154l-88.703 67.038 88.643 88.643c5.156 5.46 5.049 14.032-0.244 19.365a13.875 13.875 0 0 1-9.648 4.096c-3.5 0.07-7.023-1.169-9.773-3.735l-22.146-22.203-69.123-69.124-39.345 29.69a30.716 30.716 0 0 1-24.599 4.74 30.65 30.65 0 0 1-10.855-4.799l-39.158-29.711-78.89 79.074c66.889-14.782 134.025 23.977 154.619 89.347h93.925c53.777-0.068 97.377-43.608 97.504-97.387V434.494a96.45 96.45 0 0 0-12.445-47.37c-0.031 0.025-0.063 0.05-0.092 0.075 0.029 0.054 0.063 0.106 0.092 0.16a132.053 132.053 0 0 1-38.258 22.883z" fill="#FFBA00" opacity=".4" /><path d="M297.5 620.085a132.419 132.419 0 0 1 16.304-10.067l-0.235 0.117c-5.123-5.458-4.963-13.989 0.353-19.254l88.644-88.636-88.645-67.045a13.844 13.844 0 0 1-5.114-14.579 13.856 13.856 0 0 1 9.778-9.883 14.05 14.05 0 0 1 1.852-0.429 13.79 13.79 0 0 1 10.22 2.763l150.919 113.475h0.764c0.26 0.043 0.524 0.041 0.786 0.012l56.131-42.396 93.506-70.797c-63.705 19.549-131.792-11.357-159.214-71.64l-0.025-0.056a132.992 132.992 0 0 1-1.982-4.563H360.007c-53.777 0.059-97.377 43.608-97.503 97.385v155.681a96.402 96.402 0 0 0 13.503 49.311 0.257 0.257 0 0 1 0.021-0.024l-0.021-0.034a132.557 132.557 0 0 1 21.493-19.341z" fill="#FFBA00" opacity=".4" /><path d="M334.293 601.336l88.468-88.478a3.01 3.01 0 0 1 3.929 0l41.5 31.357a24.742 24.742 0 0 0 27.771 0l41.501-31.357a3.021 3.021 0 0 1 3.938 0l93.221 93.347a7.924 7.924 0 0 0 11.091-11.151l-91.045-91.112a2.977 2.977 0 0 1-0.881-2.351 3.045 3.045 0 0 1 1.166-2.167l91.525-69.095a7.866 7.866 0 0 0 3.057-7.255 7.857 7.857 0 0 0-7.699-6.895l-0.186 0.001a7.968 7.968 0 0 0-0.672 0.04c-0.117 0.012-0.236 0.019-0.355 0.037-0.094 0.013-0.184 0.037-0.275 0.053a7.848 7.848 0 0 0-3.326 1.458L486.515 531.535a8.673 8.673 0 0 1-8.75 0L327.189 417.884a7.885 7.885 0 0 0-4.753-1.587h-1.058a7.93 7.93 0 0 0-6.812 7.974c0.008 0.257 0.027 0.516 0.061 0.777a7.834 7.834 0 0 0 3.056 5.164l91.457 69.212a2.996 2.996 0 0 1 0.294 4.518l-91.045 91.112c-3.065 3.083-3.065 8.062 0 11.151 0.386 0.271 0.798 0.504 1.234 0.707l-0.271 0.125c0.072 0.052 0.138 0.109 0.212 0.158a129.321 129.321 0 0 1 14.729-5.859z" fill="#FCFCFC" opacity=".4" /><path d="M425.163 519.141l39.393 29.77a30.693 30.693 0 0 0 10.62 4.74 30.72 30.72 0 0 0 24.599-4.74l39.345-29.69 0.107-0.079 69.016 69.203 22.146 22.203a13.869 13.869 0 0 0 9.773 3.735 13.87 13.87 0 0 0 9.59-4.096c5.291-5.333 5.4-13.905 0.244-19.365l-88.643-88.643 88.762-67.038a13.815 13.815 0 0 0 5.381-9.154 13.866 13.866 0 0 0-2.678-10.27 13.98 13.98 0 0 0-9.16-5.408 14.833 14.833 0 0 0-2.16-0.019c-0.162 0.063-0.316 0.133-0.479 0.195-0.184 0.01-0.363 0.032-0.545 0.049a109.522 109.522 0 0 1-6.33 2.227c-0.156 0.103-0.313 0.201-0.465 0.311-0.281 0.087-0.568 0.159-0.852 0.245l-0.064 0.05-93.506 70.797-55.976 42.384c-0.052 0.007-0.104 0.006-0.155 0.012a2.874 2.874 0 0 1-0.786-0.012h-0.764L330.658 413.073a13.745 13.745 0 0 0-10.278-2.705c-0.611 0.083-1.208 0.21-1.793 0.37a13.853 13.853 0 0 0-4.664 24.462l88.644 67.045-88.644 88.636c-5.316 5.265-5.475 13.796-0.353 19.254l0.235-0.117 0.135-0.067-0.194-0.226 2.201-1.102c-3.457-3.549-4.014-8.856-1.682-12.981a10.878 10.878 0 0 1 2.008-2.771l91.046-91.045-91.399-68.861c-2.867-2.129-4.381-5.392-4.412-8.709-0.003-0.111 0-0.222 0-0.333a12.4 12.4 0 0 1 0.028-0.576c0.013-0.226 0.007-0.45 0.034-0.676a10.975 10.975 0 0 1 6.542-8.809 10.969 10.969 0 0 1 10.9 1.268L455.611 511l23.917 18.068a4.718 4.718 0 0 0 2.573 0.586 4.561 4.561 0 0 0 2.533-0.586l20.771-15.687 129.736-98.251a10.988 10.988 0 0 1 10.918-1.293c2.91 1.246 5.078 3.677 6.061 6.61l0.074 0.226c0.068 0.222 0.143 0.439 0.197 0.666 1.119 4.21-0.336 8.864-4.041 11.627l-91.516 68.861 90.811 91.111c4.133 4.282 4.074 11.085-0.133 15.301-4.207 4.207-11.018 4.267-15.301 0.134l-58.123-58.344-34.904-34.859-41.4 31.271a27.067 27.067 0 0 1-3.717 2.243 26.88 26.88 0 0 1-27.806-2.185l-41.472-31.327-83.922 83.922 5.108-1.168-0.527 0.527 0.458-0.105 0.07-0.069c0.1-0.023 0.199-0.042 0.298-0.063l78.889-79.075z" fill="#FFFFFF" opacity=".4" /><path d="M316.272 608.313h0.352l2.728-1.276 0.271-0.125a8.043 8.043 0 0 1-1.234-0.707c-3.065-3.09-3.065-8.068 0-11.151l91.045-91.112a2.995 2.995 0 0 0 0.881-2.351 3.03 3.03 0 0 0-1.175-2.167l-91.457-69.095a7.83 7.83 0 0 1-3.056-5.165 7.53 7.53 0 0 1-0.061-0.894 7.931 7.931 0 0 1 6.812-7.974h1.058a7.89 7.89 0 0 1 4.753 1.587l150.575 113.651a8.673 8.673 0 0 0 8.75 0L637.02 417.765a7.866 7.866 0 0 1 3.326-1.458c0.092-0.017 0.182-0.039 0.275-0.053 0.119-0.018 0.238-0.024 0.355-0.037a8.41 8.41 0 0 1 0.672-0.04c0.063-0.001 0.123-0.002 0.186-0.001a7.829 7.829 0 0 1 6.221 3.116c2.627 3.468 1.947 8.414-1.52 11.034l-91.523 69.095a3.02 3.02 0 0 0-1.168 2.167 2.986 2.986 0 0 0 0.873 2.351l90.994 91.112c3.107 3.073 3.143 8.097 0.059 11.203-3.08 3.115-8.104 3.14-11.211 0.066l-93.16-93.465a3.021 3.021 0 0 0-3.938 0l-41.501 31.357a24.742 24.742 0 0 1-27.771 0l-41.5-31.357a3.01 3.01 0 0 0-3.929 0l-88.409 88.526 5.249-1.577 0.504-0.54 0.609-0.139 84.045-83.978 0.029 0.021 41.472 31.327a26.883 26.883 0 0 0 31.406 0l41.5-31.348 0.018 0.018 34.904 34.859 58.359 58.285a10.916 10.916 0 0 0 14.291-1.075 10.91 10.91 0 0 0 0.906-14.301l-90.811-91.111 91.457-69.096a10.974 10.974 0 0 0 4.342-10.093 10.741 10.741 0 0 0-0.242-1.299c-0.055-0.227-0.129-0.444-0.197-0.666-0.023-0.075-0.051-0.15-0.074-0.226-0.982-2.933-3.15-5.364-6.061-6.61a10.988 10.988 0 0 0-10.918 1.293l-129.736 98.251-20.712 15.687a4.576 4.576 0 0 1-2.586 0.586h-0.006a4.722 4.722 0 0 1-2.573-0.586l-23.917-18.068-126.599-95.634c-4.862-3.619-11.74-2.603-15.351 2.25a10.945 10.945 0 0 0-2.153 6.307c-0.002 0.111 0 0.222 0 0.333 0.03 3.317 1.544 6.58 4.412 8.709l91.399 68.861-91.046 91.045c-0.834 0.834-1.5 1.772-2.008 2.771-2.088 4.107-1.421 9.252 2.009 12.676z" fill="#FFFFFF" opacity=".4" /><path d="M500.892 687.562c-20.594-65.37-87.73-104.129-154.619-89.347-0.099 0.021-0.198 0.04-0.298 0.063l-0.07 0.069-12.14 12.14c-5.433 5.427-14.233 5.427-19.666 0l-0.354-0.411a132.764 132.764 0 0 0-16.245 10.009 132.524 132.524 0 0 0-21.494 19.342l0.021 0.034a97.532 97.532 0 0 0 83.979 48.101h140.886z" fill="#FEC744" opacity=".4" /><path d="M324.85 608.476a7.923 7.923 0 0 0 4.691-2.271l4.812-4.82a131.15 131.15 0 0 0-14.631 5.835 7.909 7.909 0 0 0 5.128 1.256z" fill="#FFFFFF" opacity=".4" /><path d="M333.765 610.135l11.683-11.682 0.527-0.527-5.108 1.168-0.152 0.035-0.609 0.139-0.504 0.54-0.046 0.049 0.785-0.235-8.683 8.692a10.857 10.857 0 0 1-14.973 0.294l0.143-0.066c-0.085-0.078-0.176-0.148-0.26-0.228l-0.621 0.31-2.201 1.102 0.194 0.226 0.16 0.185c5.431 5.425 14.232 5.425 19.665-0.002z" fill="#FFFFFF" opacity=".4" /><path d="M329.658 606.205a7.931 7.931 0 0 1-9.937 1.015l-0.039-0.024-2.856 1.346-0.143 0.066c4.274 3.913 10.858 3.779 14.973-0.294l8.683-8.692-0.785 0.235-5.085 1.528-4.811 4.82z" fill="#FFFFFF" opacity=".4" /><path d="M473.549 341.728c21.466 46.95 68.451 77.28 120.386 77.215a131.971 131.971 0 0 0 38.893-5.625c0.283-0.085 0.57-0.158 0.852-0.245 0.152-0.11 0.309-0.208 0.465-0.311a13.735 13.735 0 0 1 6.33-2.227c0.182-0.017 0.361-0.039 0.545-0.049 0.162-0.062 0.316-0.132 0.479-0.195l0.121-0.049a132.03 132.03 0 0 0 38.256-22.883c-0.029-0.054-0.063-0.106-0.092-0.16-17.172-30.833-49.666-49.998-84.967-50.09H471.542a130.804 130.804 0 0 0 2.007 4.619z" fill="#FEC744" opacity=".4" /><path d="M699.24 679.339l-91.457-91.457-39.451 29.762a30.694 30.694 0 0 1-35.219 0l-39.158-29.711-79.188 79.139c66.986-14.965 134.292 23.815 154.915 89.28h93.928c53.777-0.066 97.377-43.606 97.504-97.386V503.287a96.428 96.428 0 0 0-12.447-47.371 132.183 132.183 0 0 1-38.854 23.136 13.812 13.812 0 0 1 2.635 0.05 13.988 13.988 0 0 1 9.164 5.407 13.87 13.87 0 0 1 2.678 10.271 13.824 13.824 0 0 1-5.383 9.153l-88.703 67.037 88.643 88.643c5.158 5.458 5.049 14.033-0.24 19.364-5.302 5.326-13.875 5.484-19.367 0.362z" fill="#FFBA00" /><path d="M389.23 479.102a13.79 13.79 0 0 1 10.22 2.763l150.626 113.593h0.764c0.309 0.05 0.629 0.05 0.939 0l150.164-113.414c-65.426 20.293-135.578-12.705-161.607-76.142H428.799c-53.777 0.059-97.376 43.608-97.503 97.386v155.679a96.392 96.392 0 0 0 13.503 49.311 132.62 132.62 0 0 1 37.797-29.466c-5.122-5.46-4.963-13.991 0.353-19.256l88.644-88.636-88.703-66.985a13.739 13.739 0 0 1-5.399-9.162c-1.017-7.542 4.206-14.521 11.739-15.671zM702.18 481.864l-0.236 0.179c0.195-0.062 0.393-0.117 0.588-0.179h-0.352z" fill="#FFBA00" /><path d="M724.289 494.78a13.868 13.868 0 0 0-2.678-10.271 13.986 13.986 0 0 0-9.164-5.407 14.58 14.58 0 0 0-2.576 0c-2.41 0.941-4.879 1.822-7.34 2.587h-0.352l-150.105 113.65a2.846 2.846 0 0 1-0.939 0h-0.766L399.45 481.864a13.748 13.748 0 0 0-10.278-2.704 13.861 13.861 0 0 0-11.572 10.253 13.85 13.85 0 0 0 5.114 14.579l88.644 67.045-88.644 88.635c-5.315 5.266-5.475 13.798-0.353 19.256l2.822-1.411h-0.353c-4.258-4.266-4.258-11.169 0-15.435l91.28-91.464-91.398-69.095a10.946 10.946 0 0 1-4.35-10.062 10.976 10.976 0 0 1 6.542-8.809 10.97 10.97 0 0 1 10.9 1.269l150.458 113.937c0.779 0.437 1.68 0.639 2.578 0.589a4.594 4.594 0 0 0 2.586-0.589l150.566-113.702c4.871-3.635 11.756-2.637 15.385 2.227 3.627 4.861 2.627 11.748-2.234 15.375l-91.516 68.86 90.811 91.111c4.131 4.283 4.072 11.084-0.135 15.299-4.207 4.208-11.018 4.268-15.299 0.136l-92.928-93.279-41.5 31.349a26.882 26.882 0 0 1-31.408 0l-41.507-31.349-84.528 84.53 5.87-1.344 78.953-79.139 39.391 29.769a30.721 30.721 0 0 0 35.221 0l39.451-29.769 91.164 91.406c5.492 5.122 14.064 4.964 19.365-0.361 5.289-5.331 5.398-13.906 0.242-19.364l-88.645-88.643 88.762-67.037a13.824 13.824 0 0 0 5.382-9.153z" fill="#FFFFFF" /><path d="M721.426 491.429a10.978 10.978 0 0 0-6.576-8.801 10.982 10.982 0 0 0-10.916 1.294l-150.45 113.936a4.594 4.594 0 0 1-2.586 0.589 4.748 4.748 0 0 1-2.578-0.589L397.804 484.156c-4.862-3.618-11.74-2.603-15.351 2.251-3.61 4.87-2.603 11.74 2.259 15.351l91.398 68.86-91.045 91.044c-4.266 4.267-4.266 11.187 0 15.443h0.353l2.998-1.402a8.313 8.313 0 0 1-1.235-0.705c-3.065-3.091-3.065-8.071 0-11.151l91.046-91.113a2.994 2.994 0 0 0 0.882-2.352 3.033 3.033 0 0 0-1.176-2.166l-91.457-69.095a7.83 7.83 0 0 1-3.056-5.164 7.93 7.93 0 0 1 6.751-8.868h1.058c1.713 0 3.384 0.555 4.752 1.588l150.575 113.65a8.673 8.673 0 0 0 8.75 0l150.508-113.77c3.469-2.619 8.414-1.948 11.035 1.529 2.629 3.468 1.947 8.414-1.521 11.034l-91.523 69.095a3.008 3.008 0 0 0-1.166 2.166 2.988 2.988 0 0 0 0.873 2.352l90.994 91.113c3.107 3.072 3.141 8.094 0.059 11.2-3.082 3.117-8.104 3.142-11.209 0.068l-93.162-93.464a3.02 3.02 0 0 0-3.939 0l-41.5 31.355a24.738 24.738 0 0 1-27.771 0l-41.499-31.355a3.008 3.008 0 0 0-3.93 0l-88.409 88.526 5.87-1.763 84.537-84.471 41.501 31.348a26.876 26.876 0 0 0 31.404 0l41.504-31.348 93.275 93.161a10.922 10.922 0 0 0 14.295-1.075 10.912 10.912 0 0 0 0.906-14.301l-90.811-91.111 91.457-69.095a10.97 10.97 0 0 0 4.342-10.092z" fill="#FFFFFF" /><path d="M569.682 756.352c-20.623-65.465-87.928-104.245-154.915-89.28l-12.21 12.209c-5.433 5.425-14.234 5.425-19.667 0l-0.353-0.41a132.59 132.59 0 0 0-37.738 29.347 97.52 97.52 0 0 0 84 48.135h140.883z" fill="#FFBA00" /><path d="M569.682 756.352c-20.623-65.465-87.928-104.245-154.915-89.28l-12.21 12.209c-5.433 5.425-14.234 5.425-19.667 0l-0.353-0.41a132.59 132.59 0 0 0-37.738 29.347 97.52 97.52 0 0 0 84 48.135h140.883z" fill="#FEC744" /><path d="M702.473 481.864a13.737 13.737 0 0 1 7.34-2.585 132.03 132.03 0 0 0 38.854-23.128c-17.146-30.928-49.693-50.158-85.057-50.25H540.336c20.43 49.569 68.773 81.901 122.393 81.833a132.051 132.051 0 0 0 39.744-5.87z" fill="#FFBA00" /><path d="M702.473 481.864a13.737 13.737 0 0 1 7.34-2.585 132.03 132.03 0 0 0 38.854-23.128c-17.146-30.928-49.693-50.158-85.057-50.25H540.336c20.43 49.569 68.773 81.901 122.393 81.833a132.051 132.051 0 0 0 39.744-5.87z" fill="#FEC744" /></svg>